<mxfile host="app.diagrams.net" modified="2022-11-07T15:00:32.201Z" agent="5.0 (Macintosh; Intel Mac OS X 10_15_7) AppleWebKit/605.1.15 (KHTML, like Gecko) Version/16.1 Safari/605.1.15" etag="5w81_-YVPXAdLPBdBjty" version="20.5.3" type="github">
  <diagram id="KfmTYLh3PFuOkK2bmXB0" name="Side-1">
    <mxGraphModel dx="841" dy="630" grid="1" gridSize="10" guides="1" tooltips="1" connect="1" arrows="1" fold="1" page="1" pageScale="1" pageWidth="827" pageHeight="1169" math="0" shadow="0">
      <root>
        <mxCell id="0" />
        <mxCell id="1" parent="0" />
        <mxCell id="dZQihnruVuZbL1syrKcs-2" value="Spiller" style="swimlane;" parent="1" vertex="1">
          <mxGeometry x="80" y="400" width="240" height="80" as="geometry" />
        </mxCell>
        <mxCell id="dZQihnruVuZbL1syrKcs-3" value="Bræt" style="swimlane;" parent="1" vertex="1">
          <mxGeometry x="480" y="200" width="240" height="80" as="geometry" />
        </mxCell>
        <mxCell id="dZQihnruVuZbL1syrKcs-4" value="Terning" style="swimlane;" parent="1" vertex="1">
          <mxGeometry x="480" y="400" width="240" height="80" as="geometry" />
        </mxCell>
        <mxCell id="dZQihnruVuZbL1syrKcs-6" value="&quot;Chancen&quot; Kort" style="swimlane;" parent="1" vertex="1">
          <mxGeometry x="80" y="200" width="240" height="80" as="geometry" />
        </mxCell>
        <mxCell id="dZQihnruVuZbL1syrKcs-7" value="" style="endArrow=none;html=1;rounded=0;exitX=0.5;exitY=0;exitDx=0;exitDy=0;entryX=0.5;entryY=1;entryDx=0;entryDy=0;" parent="1" source="dZQihnruVuZbL1syrKcs-4" target="dZQihnruVuZbL1syrKcs-3" edge="1">
          <mxGeometry width="50" height="50" relative="1" as="geometry">
            <mxPoint x="600" y="350" as="sourcePoint" />
            <mxPoint x="670" y="310" as="targetPoint" />
          </mxGeometry>
        </mxCell>
        <mxCell id="dZQihnruVuZbL1syrKcs-8" value="1" style="text;html=1;align=center;verticalAlign=middle;resizable=0;points=[];autosize=1;strokeColor=none;fillColor=none;" parent="1" vertex="1">
          <mxGeometry x="600" y="280" width="30" height="30" as="geometry" />
        </mxCell>
        <mxCell id="dZQihnruVuZbL1syrKcs-9" value="1" style="text;html=1;align=center;verticalAlign=middle;resizable=0;points=[];autosize=1;strokeColor=none;fillColor=none;glass=0;sketch=0;" parent="1" vertex="1">
          <mxGeometry x="600" y="370" width="30" height="30" as="geometry" />
        </mxCell>
        <mxCell id="dZQihnruVuZbL1syrKcs-10" value="Bestemmer felt" style="text;html=1;align=center;verticalAlign=middle;resizable=0;points=[];autosize=1;strokeColor=none;fillColor=none;" parent="1" vertex="1">
          <mxGeometry x="600" y="325" width="100" height="30" as="geometry" />
        </mxCell>
        <mxCell id="dZQihnruVuZbL1syrKcs-11" value="" style="endArrow=none;html=1;rounded=0;entryX=0;entryY=0.5;entryDx=0;entryDy=0;exitX=1;exitY=0.5;exitDx=0;exitDy=0;" parent="1" source="dZQihnruVuZbL1syrKcs-2" target="dZQihnruVuZbL1syrKcs-4" edge="1">
          <mxGeometry width="50" height="50" relative="1" as="geometry">
            <mxPoint x="380" y="490" as="sourcePoint" />
            <mxPoint x="430" y="440" as="targetPoint" />
          </mxGeometry>
        </mxCell>
        <mxCell id="dZQihnruVuZbL1syrKcs-12" value="2..4" style="text;html=1;align=center;verticalAlign=middle;resizable=0;points=[];autosize=1;strokeColor=none;fillColor=none;" parent="1" vertex="1">
          <mxGeometry x="325" y="410" width="40" height="30" as="geometry" />
        </mxCell>
        <mxCell id="dZQihnruVuZbL1syrKcs-13" value="1" style="text;html=1;align=center;verticalAlign=middle;resizable=0;points=[];autosize=1;strokeColor=none;fillColor=none;" parent="1" vertex="1">
          <mxGeometry x="440" y="410" width="30" height="30" as="geometry" />
        </mxCell>
        <mxCell id="dZQihnruVuZbL1syrKcs-14" value="" style="endArrow=none;html=1;rounded=0;entryX=0;entryY=0.5;entryDx=0;entryDy=0;exitX=1;exitY=0.5;exitDx=0;exitDy=0;" parent="1" source="dZQihnruVuZbL1syrKcs-6" target="dZQihnruVuZbL1syrKcs-3" edge="1">
          <mxGeometry width="50" height="50" relative="1" as="geometry">
            <mxPoint x="380" y="490" as="sourcePoint" />
            <mxPoint x="430" y="440" as="targetPoint" />
          </mxGeometry>
        </mxCell>
        <mxCell id="dZQihnruVuZbL1syrKcs-15" value="Slå" style="text;html=1;align=center;verticalAlign=middle;resizable=0;points=[];autosize=1;strokeColor=none;fillColor=none;glass=0;sketch=0;" parent="1" vertex="1">
          <mxGeometry x="380" y="440" width="40" height="30" as="geometry" />
        </mxCell>
        <mxCell id="dZQihnruVuZbL1syrKcs-16" value="18" style="text;html=1;align=center;verticalAlign=middle;resizable=0;points=[];autosize=1;strokeColor=none;fillColor=none;" parent="1" vertex="1">
          <mxGeometry x="320" y="210" width="40" height="30" as="geometry" />
        </mxCell>
        <mxCell id="dZQihnruVuZbL1syrKcs-17" value="1" style="text;html=1;align=center;verticalAlign=middle;resizable=0;points=[];autosize=1;strokeColor=none;fillColor=none;" parent="1" vertex="1">
          <mxGeometry x="450" y="210" width="30" height="30" as="geometry" />
        </mxCell>
        <mxCell id="dZQihnruVuZbL1syrKcs-18" value="Aktiverer" style="text;html=1;align=center;verticalAlign=middle;resizable=0;points=[];autosize=1;strokeColor=none;fillColor=none;" parent="1" vertex="1">
          <mxGeometry x="365" y="240" width="70" height="30" as="geometry" />
        </mxCell>
        <mxCell id="dZQihnruVuZbL1syrKcs-19" value="" style="endArrow=none;html=1;rounded=0;entryX=0.5;entryY=1;entryDx=0;entryDy=0;exitX=0.5;exitY=0;exitDx=0;exitDy=0;" parent="1" source="dZQihnruVuZbL1syrKcs-2" target="dZQihnruVuZbL1syrKcs-6" edge="1">
          <mxGeometry width="50" height="50" relative="1" as="geometry">
            <mxPoint x="390" y="500" as="sourcePoint" />
            <mxPoint x="440" y="450" as="targetPoint" />
          </mxGeometry>
        </mxCell>
        <mxCell id="dZQihnruVuZbL1syrKcs-20" value="18" style="text;html=1;align=center;verticalAlign=middle;resizable=0;points=[];autosize=1;strokeColor=none;fillColor=none;" parent="1" vertex="1">
          <mxGeometry x="160" y="280" width="40" height="30" as="geometry" />
        </mxCell>
        <mxCell id="dZQihnruVuZbL1syrKcs-21" value="2..4" style="text;html=1;align=center;verticalAlign=middle;resizable=0;points=[];autosize=1;strokeColor=none;fillColor=none;" parent="1" vertex="1">
          <mxGeometry x="160" y="370" width="40" height="30" as="geometry" />
        </mxCell>
        <mxCell id="dZQihnruVuZbL1syrKcs-22" value="Trække" style="text;html=1;align=center;verticalAlign=middle;resizable=0;points=[];autosize=1;strokeColor=none;fillColor=none;" parent="1" vertex="1">
          <mxGeometry x="140" y="325" width="60" height="30" as="geometry" />
        </mxCell>
      </root>
    </mxGraphModel>
  </diagram>
</mxfile>
